<?xml version="1.0" encoding="UTF-8"?>
<svg width="256px" height="256px" viewBox="0 0 256 256" version="1.1" xmlns="http://www.w3.org/2000/svg" xmlns:xlink="http://www.w3.org/1999/xlink">
    <!-- Generator: Sketch 43.1 (39012) - http://www.bohemiancoding.com/sketch -->
    <title>lgo-mfsp-awards-white</title>
    <desc>Created with Sketch.</desc>
    <defs>
        <polygon id="path-1" points="0.06 255 0.06 0.463 254.538 0.463 254.538 255"></polygon>
    </defs>
    <g id="Page-1" stroke="none" stroke-width="1" fill="none" fill-rule="evenodd">
        <g id="Artboard" transform="translate(-122.000000, -122.000000)">
            <g id="lgo-mfsp-awards-white" transform="translate(122.500000, 122.500000)">
                <g id="Marco">
                    <mask id="mask-2" fill="white">
                        <use xlink:href="#path-1"></use>
                    </mask>
                    <g id="Clip-2"></g>
                    <path d="M127.266,3.008 L127.266,0.463 C56.972,0.464 0.001,57.435 0,127.735 C0.002,198.028 56.972,254.998 127.266,255 C197.559,254.998 254.537,198.028 254.538,127.735 C254.537,57.435 197.559,0.464 127.266,0.463 L127.266,5.553 C161.015,5.554 191.545,19.222 213.663,41.336 C235.777,63.453 249.447,93.982 249.449,127.735 C249.447,161.483 235.778,192.011 213.663,214.128 C191.545,236.241 161.015,249.909 127.266,249.91 C93.517,249.909 62.989,236.241 40.872,214.128 C18.759,192.011 5.091,161.484 5.09,127.735 C5.091,93.982 18.759,63.453 40.872,41.335 C62.989,19.222 93.517,5.554 127.266,5.553 L127.266,3.008" id="Fill-3" fill="#FFFFFF" mask="url(#mask-2)"></path>
                </g>
                <g id="Laurel" transform="translate(16.000000, 75.000000)" fill="#FFFFFF">
                    <path d="M27.854,14.458 C1.299,49.642 8.256,105.877 50.899,132.132 C83.345,152.011 115.928,137.657 123.357,157.054 C123.784,156.4 124.352,155.414 124.681,154.674 C114.806,135.189 84.228,150.329 51.746,130.753 C9.735,105.306 2.269,49.958 28.384,14.844 L27.854,14.458" id="Fill-31"></path>
                    <path d="M88.538,127.659 C90.568,129.358 93.26,132.37 93.761,134.942 C94.008,135.257 95.412,137.785 93.86,140.409 L93.768,140.644 C88.518,138.962 87.3,132.955 88.538,127.659" id="Fill-32"></path>
                    <path d="M81.327,127.059 C84.669,130.365 87.947,136.429 85.33,140.231 C80.351,138.276 79.637,132.108 81.327,127.059" id="Fill-33"></path>
                    <path d="M74.198,125.67 C77.188,129.147 79.838,135.419 76.959,138.906 C72.278,136.604 72.075,130.462 74.198,125.67" id="Fill-34"></path>
                    <path d="M67.239,123.466 C70.255,127.879 71.684,133.728 68.779,136.684 C64.453,134.093 64.645,128.064 67.239,123.466" id="Fill-35"></path>
                    <path d="M60.526,120.486 C62.743,124.424 64.222,130.731 60.883,133.59 C56.814,130.652 57.684,124.608 60.526,120.486" id="Fill-36"></path>
                    <path d="M54.135,116.773 C55.995,120.739 56.878,127.113 53.359,129.663 C49.932,126.914 50.637,120.972 54.135,116.773" id="Fill-37"></path>
                    <path d="M48.148,112.361 C49.681,116.475 49.931,122.797 46.307,124.93 C42.982,121.33 44.701,115.816 48.148,112.361" id="Fill-38"></path>
                    <path d="M42.661,107.281 C43.651,111.51 43.651,117.609 39.798,119.469 C36.897,115.804 38.805,110.506 42.661,107.281" id="Fill-39"></path>
                    <path d="M37.743,101.611 C38.42,105.86 37.778,111.851 33.916,113.342 C31.295,109.448 33.887,104.308 37.743,101.611" id="Fill-40"></path>
                    <path d="M33.444,95.417 C33.873,99.46 32.604,105.458 28.715,106.623 C26.638,102.924 29,97.98 33.444,95.417" id="Fill-41"></path>
                    <path d="M29.852,88.75 C29.704,92.89 28.29,98.548 24.279,99.371 C22.495,95.09 25.665,90.697 29.852,88.75" id="Fill-42"></path>
                    <path d="M27.014,81.69 C26.684,85.677 24.554,91.197 20.66,91.675 C19.498,88.099 21.835,83.577 27.014,81.69" id="Fill-43"></path>
                    <path d="M24.954,74.322 C24.331,78.183 21.756,83.465 17.888,83.63 C16.819,79.723 20.289,75.591 24.954,74.322" id="Fill-44"></path>
                    <path d="M23.705,66.72 C22.837,70.436 19.815,75.453 15.999,75.326 C15.347,71.011 19.403,67.515 23.705,66.72" id="Fill-45"></path>
                    <path d="M23.297,58.971 C22.179,62.496 18.791,67.286 15.017,66.857 C14.558,62.782 18.99,59.415 23.297,58.971" id="Fill-46"></path>
                    <path d="M23.739,51.197 C22.315,54.652 18.625,59.012 14.957,58.321 C14.846,55.132 18.362,51.313 23.739,51.197" id="Fill-47"></path>
                    <path d="M25.039,43.49 C23.336,46.821 19.329,50.776 15.817,49.827 C15.974,46.643 19.786,43.179 25.039,43.49" id="Fill-48"></path>
                    <path d="M27.197,35.937 C25.283,39.043 21.002,42.678 17.591,41.472 C18.029,38.291 22.111,35.226 27.197,35.937" id="Fill-49"></path>
                    <path d="M30.196,28.63 C27.963,31.692 23.46,34.764 20.266,33.355 C20.966,30.232 25.279,27.546 30.196,28.63" id="Fill-50"></path>
                    <path d="M34.021,21.654 C31.707,24.367 26.975,27.234 23.827,25.566 C24.753,22.582 29.221,20.203 34.021,21.654" id="Fill-51"></path>
                    <path d="M38.591,15.117 C36.099,17.628 31.172,20.088 28.186,18.216 C29.656,14.794 34.634,13.577 38.591,15.117" id="Fill-52"></path>
                    <path d="M83.734,159.219 C81.996,153.428 85.102,147.743 90.953,146.622 C92.284,148.37 92.913,150.467 91.44,153.328 C91.069,154.043 90.604,154.704 90.064,155.312 C89.524,155.916 88.908,156.49 88.238,156.956 C86.898,157.911 85.335,158.659 83.734,159.219" id="Fill-53"></path>
                    <path d="M73.432,157.268 C72.517,151.814 75.676,146.467 82.003,145.794 C83.091,147.641 83.452,149.755 81.665,152.392 C80.767,153.704 79.523,154.797 78.1,155.566 C77.387,155.961 76.627,156.299 75.84,156.586 C75.054,156.869 74.238,157.123 73.432,157.268" id="Fill-54"></path>
                    <path d="M63.403,154.216 C63.299,151.538 64.057,148.871 66.277,146.681 C68.58,144.394 70.636,144.016 73.175,144.018 C74.012,145.932 74.105,148.03 72.032,150.408 C71.512,150.996 70.912,151.539 70.264,151.971 C69.616,152.408 68.909,152.778 68.163,153.087 C66.673,153.704 65.017,154.102 63.403,154.216" id="Fill-55"></path>
                    <path d="M53.808,150.117 C54.213,145.615 57.27,142.274 61.122,141.364 C62.297,141.087 63.453,141.104 64.605,141.307 C66.236,146.846 60.102,150.256 53.808,150.117" id="Fill-56"></path>
                    <path d="M44.746,145.032 C45.922,139.735 51.072,136.142 56.393,137.676 C57.288,143.269 50.944,145.832 44.746,145.032" id="Fill-57"></path>
                    <path d="M36.316,139.028 C38.204,133.91 43.536,131.243 48.622,133.199 C48.806,138.697 42.312,140.489 36.316,139.028" id="Fill-58"></path>
                    <path d="M28.631,132.157 C30.958,127.692 36.529,125.295 41.375,127.932 C40.912,133.201 34.281,134.378 28.631,132.157" id="Fill-59"></path>
                    <path d="M21.743,124.537 C24.456,120.661 29.823,118.78 34.729,121.939 C33.656,126.975 27.089,127.323 21.743,124.537" id="Fill-60"></path>
                    <path d="M15.723,116.257 C19.164,112.502 25.096,111.9 28.769,115.273 C26.997,120.193 20.485,119.423 15.723,116.257" id="Fill-61"></path>
                    <path d="M10.633,107.408 C14.345,104.318 20.236,104.198 23.563,108.014 C21.888,111.315 16.553,112.332 10.633,107.408" id="Fill-62"></path>
                    <path d="M6.571,98.075 C10.91,95.363 16.459,96.446 19.157,100.253 C16.938,103.529 11.171,103.198 6.571,98.075" id="Fill-63"></path>
                    <path d="M3.546,88.39 C7.628,86.543 12.963,87.548 15.602,92.077 C12.758,95.298 7.959,93.232 4.861,90.03 C4.388,89.507 3.95,88.954 3.546,88.39" id="Fill-64"></path>
                    <path d="M1.591,78.475 C5.958,77.179 11.105,79.08 12.941,83.576 C9.787,86.348 5.161,83.621 2.698,80.223 C2.293,79.658 1.924,79.07 1.591,78.475" id="Fill-65"></path>
                    <path d="M0.718,68.455 C5.8,67.677 10.271,70.983 11.216,74.846 C8.549,76.591 3.66,75.324 0.718,68.455" id="Fill-66"></path>
                    <path d="M0.927,58.451 C5.82,58.373 9.955,62.002 10.443,65.994 C7.591,67.362 2.965,65.363 0.927,58.451" id="Fill-67"></path>
                    <path d="M2.194,48.551 C6.67,49.1 10.566,52.937 10.596,57.121 C6.765,58.37 3.142,54.094 2.194,48.551" id="Fill-68"></path>
                    <path d="M4.511,38.871 C8.958,40.063 12.13,44.396 11.673,48.32 C8.692,48.883 4.819,45.754 4.511,38.871" id="Fill-69"></path>
                    <path d="M7.852,29.528 C11.857,31.235 14.565,35.684 13.695,39.692 C9.783,39.898 7.459,34.726 7.852,29.528" id="Fill-70"></path>
                    <path d="M12.163,20.647 C15.565,22.707 17.888,26.99 16.623,31.35 C13.672,31.094 10.896,27.07 12.163,20.647" id="Fill-71"></path>
                    <path d="M17.4,12.293 C20.344,14.707 22.224,19.183 20.431,23.354 C16.809,22.519 15.832,17.127 17.4,12.293" id="Fill-72"></path>
                    <path d="M23.48,4.583 C26.1,7.442 27.23,12.101 25.067,15.816 C21.669,14.505 21.405,9.145 23.48,4.583" id="Fill-73"></path>
                    <path d="M41.347,0.785 C39.577,5.357 35.218,11.267 30.363,11.648 C29.937,6.511 35.684,1.904 41.347,0.785" id="Fill-74"></path>
                    <path d="M194.684,14.458 C221.24,49.642 214.283,105.877 171.64,132.132 C139.194,152.011 106.61,137.657 99.182,157.054 C98.755,156.4 98.186,155.414 97.857,154.674 C107.732,135.189 138.31,150.329 170.792,130.753 C212.803,105.306 220.269,49.958 194.155,14.844 L194.684,14.458" id="Fill-75"></path>
                    <path d="M134.001,127.659 C131.97,129.358 129.278,132.37 128.778,134.942 C128.531,135.257 127.126,137.785 128.679,140.409 L128.771,140.644 C134.02,138.962 135.238,132.955 134.001,127.659" id="Fill-76"></path>
                    <path d="M141.211,127.059 C137.87,130.365 134.592,136.429 137.208,140.231 C142.188,138.276 142.902,132.108 141.211,127.059" id="Fill-77"></path>
                    <path d="M148.34,125.67 C145.35,129.147 142.7,135.419 145.579,138.906 C150.26,136.604 150.464,130.462 148.34,125.67" id="Fill-78"></path>
                    <path d="M155.3,123.466 C152.284,127.879 150.855,133.728 153.76,136.684 C158.085,134.093 157.893,128.064 155.3,123.466" id="Fill-79"></path>
                    <path d="M162.013,120.486 C159.795,124.424 158.316,130.731 161.656,133.59 C165.725,130.652 164.855,124.608 162.013,120.486" id="Fill-80"></path>
                    <path d="M168.404,116.773 C166.544,120.739 165.66,127.113 169.18,129.663 C172.607,126.914 171.902,120.972 168.404,116.773" id="Fill-81"></path>
                    <path d="M174.391,112.361 C172.857,116.475 172.607,122.797 176.231,124.93 C179.556,121.33 177.838,115.816 174.391,112.361" id="Fill-82"></path>
                    <path d="M179.877,107.281 C178.887,111.51 178.888,117.609 182.74,119.469 C185.642,115.804 183.734,110.506 179.877,107.281" id="Fill-83"></path>
                    <path d="M184.796,101.611 C184.119,105.86 184.76,111.851 188.622,113.342 C191.244,109.448 188.652,104.308 184.796,101.611" id="Fill-84"></path>
                    <path d="M189.095,95.417 C188.666,99.46 189.934,105.458 193.824,106.623 C195.9,102.924 193.539,97.98 189.095,95.417" id="Fill-85"></path>
                    <path d="M192.686,88.75 C192.835,92.89 194.249,98.548 198.26,99.371 C200.043,95.09 196.874,90.697 192.686,88.75" id="Fill-86"></path>
                    <path d="M195.524,81.69 C195.855,85.677 197.985,91.197 201.879,91.675 C203.04,88.099 200.704,83.577 195.524,81.69" id="Fill-87"></path>
                    <path d="M197.584,74.322 C198.207,78.183 200.782,83.465 204.651,83.63 C205.719,79.723 202.25,75.591 197.584,74.322" id="Fill-88"></path>
                    <path d="M198.833,66.72 C199.702,70.436 202.723,75.453 206.539,75.326 C207.192,71.011 203.136,67.515 198.833,66.72" id="Fill-89"></path>
                    <path d="M199.242,58.971 C200.36,62.496 203.748,67.286 207.522,66.857 C207.981,62.782 203.549,59.415 199.242,58.971" id="Fill-90"></path>
                    <path d="M198.8,51.197 C200.223,54.652 203.914,59.012 207.581,58.321 C207.692,55.132 204.176,51.313 198.8,51.197" id="Fill-91"></path>
                    <path d="M197.5,43.49 C199.202,46.821 203.21,50.776 206.721,49.827 C206.564,46.643 202.753,43.179 197.5,43.49" id="Fill-92"></path>
                    <path d="M195.342,35.937 C197.256,39.043 201.537,42.678 204.948,41.472 C204.51,38.291 200.428,35.226 195.342,35.937" id="Fill-93"></path>
                    <path d="M192.343,28.63 C194.576,31.692 199.078,34.764 202.273,33.355 C201.573,30.232 197.259,27.546 192.343,28.63" id="Fill-94"></path>
                    <path d="M188.518,21.654 C190.831,24.367 195.564,27.234 198.711,25.566 C197.785,22.582 193.318,20.203 188.518,21.654" id="Fill-95"></path>
                    <path d="M183.947,15.117 C186.44,17.628 191.366,20.088 194.353,18.216 C192.883,14.794 187.905,13.577 183.947,15.117" id="Fill-96"></path>
                    <path d="M138.805,159.219 C140.542,153.428 137.437,147.743 131.585,146.622 C130.255,148.37 129.625,150.467 131.098,153.328 C131.47,154.043 131.934,154.704 132.475,155.312 C133.015,155.916 133.63,156.49 134.3,156.956 C135.64,157.911 137.204,158.659 138.805,159.219" id="Fill-97"></path>
                    <path d="M149.107,157.268 C150.021,151.814 146.863,146.467 140.535,145.794 C139.447,147.641 139.086,149.755 140.873,152.392 C141.772,153.704 143.015,154.797 144.439,155.566 C145.152,155.961 145.912,156.299 146.699,156.586 C147.484,156.869 148.3,157.123 149.107,157.268" id="Fill-98"></path>
                    <path d="M159.136,154.216 C159.24,151.538 158.481,148.871 156.262,146.681 C153.959,144.394 151.903,144.016 149.364,144.018 C148.527,145.932 148.434,148.03 150.507,150.408 C151.026,150.996 151.627,151.539 152.274,151.971 C152.923,152.408 153.63,152.778 154.375,153.087 C155.866,153.704 157.522,154.102 159.136,154.216" id="Fill-99"></path>
                    <path d="M168.731,150.117 C168.326,145.615 165.268,142.274 161.417,141.364 C160.241,141.087 159.085,141.104 157.933,141.307 C156.302,146.846 162.437,150.256 168.731,150.117" id="Fill-100"></path>
                    <path d="M177.793,145.032 C176.616,139.735 171.467,136.142 166.145,137.676 C165.251,143.269 171.595,145.832 177.793,145.032" id="Fill-101"></path>
                    <path d="M186.223,139.028 C184.334,133.91 179.003,131.243 173.916,133.199 C173.732,138.697 180.226,140.489 186.223,139.028" id="Fill-102"></path>
                    <path d="M193.908,132.157 C191.581,127.692 186.01,125.295 181.163,127.932 C181.627,133.201 188.258,134.378 193.908,132.157" id="Fill-103"></path>
                    <path d="M200.796,124.537 C198.083,120.661 192.716,118.78 187.81,121.939 C188.883,126.975 195.45,127.323 200.796,124.537" id="Fill-104"></path>
                    <path d="M206.816,116.257 C203.374,112.502 197.442,111.9 193.77,115.273 C195.542,120.193 202.054,119.423 206.816,116.257" id="Fill-105"></path>
                    <path d="M211.905,107.408 C208.194,104.318 202.303,104.198 198.975,108.014 C200.651,111.315 205.986,112.332 211.905,107.408" id="Fill-106"></path>
                    <path d="M215.968,98.075 C211.629,95.363 206.08,96.446 203.382,100.253 C205.601,103.529 211.368,103.198 215.968,98.075" id="Fill-107"></path>
                    <path d="M218.992,88.39 C214.91,86.543 209.576,87.548 206.937,92.077 C209.781,95.298 214.58,93.232 217.677,90.03 C218.15,89.507 218.588,88.954 218.992,88.39" id="Fill-108"></path>
                    <path d="M220.948,78.475 C216.581,77.179 211.434,79.08 209.598,83.576 C212.751,86.348 217.377,83.621 219.841,80.223 C220.245,79.658 220.614,79.07 220.948,78.475" id="Fill-109"></path>
                    <path d="M221.82,68.455 C216.739,67.677 212.268,70.983 211.323,74.846 C213.99,76.591 218.878,75.324 221.82,68.455" id="Fill-110"></path>
                    <path d="M221.612,58.451 C216.719,58.373 212.584,62.002 212.095,65.994 C214.948,67.362 219.574,65.363 221.612,58.451" id="Fill-111"></path>
                    <path d="M220.345,48.551 C215.868,49.1 211.972,52.937 211.942,57.121 C215.773,58.37 219.396,54.094 220.345,48.551" id="Fill-112"></path>
                    <path d="M218.027,38.871 C213.581,40.063 210.408,44.396 210.865,48.32 C213.847,48.883 217.72,45.754 218.027,38.871" id="Fill-113"></path>
                    <path d="M214.686,29.528 C210.682,31.235 207.973,35.684 208.843,39.692 C212.756,39.898 215.08,34.726 214.686,29.528" id="Fill-114"></path>
                    <path d="M210.376,20.647 C206.974,22.707 204.651,26.99 205.916,31.35 C208.866,31.094 211.643,27.07 210.376,20.647" id="Fill-115"></path>
                    <path d="M205.139,12.293 C202.195,14.707 200.315,19.183 202.107,23.354 C205.73,22.519 206.706,17.127 205.139,12.293" id="Fill-116"></path>
                    <path d="M199.058,4.583 C196.439,7.442 195.309,12.101 197.472,15.816 C200.87,14.505 201.134,9.145 199.058,4.583" id="Fill-117"></path>
                    <path d="M181.191,0.785 C182.962,5.357 187.32,11.267 192.176,11.648 C192.602,6.511 186.854,1.904 181.191,0.785" id="Fill-118"></path>
                </g>
                <g id="Winner" transform="translate(85.000000, 175.000000)" fill="#FFFFFF">
                    <polyline id="Fill-25" points="9.555 0.405 11.563 0.405 14.882 10.461 18.106 0.443 20.596 0.443 15.886 14.052 13.84 14.052 10.52 4.343 7.2 14.052 5.154 14.052 0.445 0.443 3.012 0.443 6.235 10.461 9.555 0.405"></polyline>
                    <polygon id="Fill-26" points="23.162 13.955 25.536 13.955 25.536 0.443 23.162 0.443"></polygon>
                    <polyline id="Fill-27" points="38.584 0.443 40.92 0.443 40.92 13.955 38.931 13.955 31.481 4.343 31.481 13.955 29.145 13.955 29.145 0.443 31.345 0.443 38.584 9.786 38.584 0.443"></polyline>
                    <polyline id="Fill-28" points="53.831 0.443 56.167 0.443 56.167 13.955 54.179 13.955 46.728 4.343 46.728 13.955 44.393 13.955 44.393 0.443 46.593 0.443 53.831 9.786 53.831 0.443"></polyline>
                    <polyline id="Fill-29" points="69.658 2.566 62.014 2.566 62.014 6.08 68.789 6.08 68.789 8.203 62.014 8.203 62.014 11.832 69.754 11.832 69.754 13.955 59.64 13.955 59.64 0.443 69.658 0.443 69.658 2.566"></polyline>
                    <path d="M78.401,2.605 L74.945,2.605 L74.945,7.141 L78.42,7.141 C80.119,7.141 81.199,6.254 81.199,4.863 C81.199,3.377 80.157,2.605 78.401,2.605 Z M81.238,13.955 L77.918,9.245 L74.945,9.245 L74.945,13.955 L72.571,13.955 L72.571,0.443 L78.594,0.443 C81.701,0.443 83.612,2.084 83.612,4.728 C83.612,6.968 82.28,8.318 80.389,8.84 L84.037,13.955 L81.238,13.955 L81.238,13.955 Z" id="Fill-30"></path>
                </g>
                <g id="MfS&amp;P" transform="translate(48.000000, 117.000000)" fill="#FFFFFF">
                    <path d="M103.891,36.005 C103.36,36.005 103.042,35.736 102.604,34.91 C101.896,35.646 101.234,36.005 100.571,36.005 C99.686,36.005 98.986,35.268 98.986,34.344 C98.986,33.527 99.49,32.971 100.59,32.533 C100.152,32.184 99.891,31.697 99.891,31.239 C99.891,30.503 100.45,30.056 101.363,30.056 C102.166,30.056 102.651,30.414 102.651,31.001 C102.651,31.488 102.333,31.847 101.569,32.254 C102.147,32.682 102.688,33.279 103.098,33.955 C103.797,32.95 104.142,32.374 104.142,32.125 C104.142,31.975 104.03,31.935 103.592,31.916 L103.592,31.667 L105.457,31.667 L105.457,31.916 C105.419,31.915 105.383,31.915 105.348,31.915 C104.889,31.915 104.711,31.975 104.59,32.104 C104.403,32.304 103.881,33.398 103.237,34.184 C103.825,35.119 103.872,35.597 104.338,35.597 C104.553,35.597 104.832,35.477 105.084,35.278 L105.195,35.477 C104.655,35.855 104.291,36.005 103.891,36.005 M100.777,32.722 C100.227,33.09 99.938,33.587 99.938,34.144 C99.938,34.831 100.403,35.388 101.103,35.388 C101.531,35.388 102.026,35.119 102.464,34.662 C102.109,33.955 101.308,33.149 100.777,32.722 M101.261,30.334 C100.916,30.334 100.674,30.602 100.674,30.971 C100.674,31.339 100.823,31.567 101.373,32.075 C101.728,31.797 101.896,31.488 101.896,31.12 C101.896,30.673 101.615,30.334 101.261,30.334" id="Fill-120"></path>
                    <path d="M109.886,35.846 L107.202,35.846 L107.202,35.595 C107.803,35.566 107.934,35.436 107.934,34.607 L107.934,31.294 C107.934,30.391 107.785,30.308 107.098,30.308 L107.098,30.057 C107.35,30.057 107.785,30.038 107.995,30.028 C108.413,30.01 108.988,29.981 109.153,29.981 C110.8,29.981 111.689,30.382 111.689,31.657 C111.689,32.746 110.844,33.5 109.615,33.5 C109.38,33.5 109.145,33.481 108.901,33.434 L108.901,34.71 C108.901,35.427 109.075,35.585 109.886,35.595 L109.886,35.846 M109.328,30.242 C109.162,30.242 109.031,30.252 108.901,30.27 L108.901,33.155 C109.014,33.175 109.145,33.202 109.276,33.202 C110.077,33.202 110.635,32.551 110.635,31.639 C110.635,31.014 110.373,30.242 109.328,30.242" id="Fill-121"></path>
                    <path d="M115.331,35.995 C113.51,35.995 112.186,34.775 112.186,33.109 C112.186,31.248 113.519,29.907 115.365,29.907 C117.247,29.907 118.546,31.108 118.546,32.849 C118.546,34.524 117.291,35.995 115.331,35.995 M115.296,30.205 C114.041,30.205 113.239,31.229 113.239,32.857 C113.239,34.728 114.363,35.696 115.47,35.696 C116.681,35.696 117.491,34.644 117.491,33.081 C117.491,31.396 116.576,30.205 115.296,30.205" id="Fill-122"></path>
                    <path d="M125.682,35.952 C124.216,35.953 123.795,35.617 123.06,34.831 L122.598,34.338 C122.153,33.863 122.023,33.732 121.657,33.444 C121.518,33.454 121.366,33.462 121.219,33.462 C121.099,33.462 120.983,33.457 120.881,33.444 L120.881,34.673 C120.881,35.417 120.965,35.598 121.612,35.598 C121.662,35.598 121.714,35.597 121.771,35.595 L121.771,35.846 L119.104,35.846 L119.104,35.595 C119.144,35.596 119.183,35.597 119.22,35.597 C119.845,35.597 119.914,35.374 119.914,34.794 L119.914,31.061 C119.914,30.456 119.819,30.308 119.104,30.308 L119.104,30.057 C119.305,30.057 119.749,30.018 120.35,29.991 C120.812,29.973 121.238,29.973 121.413,29.973 C123.173,29.973 123.775,30.792 123.775,31.639 C123.775,32.327 123.408,32.83 122.676,33.155 C122.816,33.258 123.191,33.649 123.33,33.798 L123.896,34.403 C124.672,35.231 125.264,35.603 125.987,35.687 L125.987,35.948 C125.881,35.951 125.779,35.952 125.682,35.952 M121.3,30.233 C121.169,30.233 120.96,30.252 120.881,30.27 L120.881,33.183 L121.16,33.212 C122.319,33.155 122.72,32.681 122.72,31.731 C122.72,30.792 122.249,30.233 121.3,30.233" id="Fill-123"></path>
                    <path d="M129.57,35.846 L126.581,35.846 L126.581,35.595 C127.452,35.595 127.592,35.474 127.592,34.859 L127.592,30.474 L126.346,30.474 C125.831,30.474 125.657,30.531 125.527,31.499 L125.274,31.499 L125.431,29.898 L125.666,29.898 L125.806,30.028 C125.884,30.047 126.006,30.057 126.233,30.057 L129.918,30.057 C130.362,30.057 130.432,30.038 130.485,29.898 L130.72,29.898 L130.876,31.499 L130.623,31.499 C130.502,30.531 130.327,30.474 129.805,30.474 L128.559,30.474 L128.559,34.859 C128.559,35.492 128.654,35.595 129.57,35.595 L129.57,35.846" id="Fill-124"></path>
                    <path d="M134.423,35.995 C132.768,35.995 131.879,35.147 131.879,33.631 L131.879,31.014 C131.879,30.447 131.739,30.308 131.139,30.308 L131.139,30.057 L133.612,30.057 L133.612,30.308 C132.968,30.308 132.846,30.456 132.846,31.108 L132.846,33.612 C132.846,34.849 133.621,35.418 134.71,35.418 C135.678,35.418 136.584,34.971 136.584,33.593 L136.584,31.108 C136.584,30.382 136.453,30.308 135.747,30.308 L135.747,30.057 L137.856,30.057 L137.856,30.308 C137.193,30.308 137.063,30.456 137.063,31.108 L137.063,33.695 C137.063,35.157 136.009,35.995 134.423,35.995" id="Fill-125"></path>
                    <path d="M141.254,35.995 C139.486,35.995 138.309,34.831 138.309,33.081 C138.309,31.844 138.98,29.907 141.376,29.907 C142.23,29.907 142.752,30.158 143.04,30.158 C143.153,30.158 143.214,30.131 143.267,30.057 L143.519,30.057 L143.519,31.768 L143.258,31.768 C143.058,30.764 142.439,30.205 141.532,30.205 C140.226,30.205 139.363,31.304 139.363,32.978 C139.363,34.841 140.452,35.65 141.506,35.65 C141.899,35.65 142.256,35.548 142.621,35.343 L142.621,34.235 C142.621,33.593 142.447,33.51 141.585,33.51 L141.585,33.258 L144.19,33.258 L144.19,33.51 C143.598,33.51 143.589,33.89 143.589,34.245 L143.589,35.427 C142.605,35.846 141.977,35.995 141.254,35.995" id="Fill-126"></path>
                    <path d="M150.324,35.846 L147.737,35.846 L147.737,35.595 C148.425,35.595 148.617,35.519 148.617,35.25 C148.617,35.157 148.582,34.999 148.495,34.757 L148.076,33.602 L146.081,33.602 L145.654,34.841 C145.594,35.017 145.568,35.139 145.568,35.231 C145.568,35.476 145.711,35.598 146.259,35.598 C146.315,35.598 146.374,35.597 146.439,35.595 L146.439,35.846 L144.313,35.846 L144.313,35.595 C144.897,35.585 145.01,35.482 145.254,34.757 L146.831,30.14 L146.761,29.907 L147.737,29.907 L149.436,34.757 C149.689,35.482 149.776,35.595 150.324,35.595 L150.324,35.846 M147.074,30.782 L146.247,33.137 L147.911,33.137 L147.074,30.782" id="Fill-127"></path>
                    <path d="M154.726,35.846 L150.508,35.846 L150.508,35.595 C151.205,35.595 151.354,35.529 151.354,34.794 L151.354,31.108 C151.354,30.503 151.297,30.306 150.608,30.306 C150.576,30.306 150.543,30.307 150.508,30.308 L150.508,30.057 L153.366,30.057 L153.366,30.308 C152.425,30.308 152.32,30.345 152.32,31.043 L152.32,34.971 C152.32,35.352 152.391,35.427 152.791,35.427 L153.689,35.427 C154.429,35.427 154.482,35.39 155.135,34.44 L155.397,34.44 L154.726,35.846" id="Fill-128"></path>
                    <path d="M157.916,16.166 L157.359,16.166 L156.499,15.035 L156.348,15.041 L156.348,15.766 C156.348,15.903 156.366,15.99 156.404,16.027 C156.444,16.063 156.531,16.088 156.658,16.1 L156.658,16.166 L155.696,16.166 L155.696,16.1 C155.831,16.086 155.914,16.06 155.948,16.016 C155.979,15.975 155.996,15.878 155.996,15.725 L155.996,14.128 C155.996,13.998 155.978,13.912 155.941,13.872 C155.904,13.832 155.823,13.805 155.696,13.796 L155.696,13.729 L156.655,13.729 C156.853,13.729 157.019,13.755 157.152,13.81 C157.404,13.912 157.531,14.099 157.531,14.373 C157.531,14.556 157.475,14.695 157.361,14.794 C157.25,14.892 157.098,14.958 156.906,14.99 L157.617,15.923 L157.747,16.049 L157.916,16.1 L157.916,16.166 M156.562,13.862 C156.463,13.862 156.403,13.87 156.381,13.885 L156.348,13.99 L156.348,14.909 C156.595,14.899 156.772,14.872 156.878,14.829 C157.065,14.747 157.158,14.594 157.158,14.369 C157.158,14.152 157.076,14.004 156.91,13.925 C156.824,13.883 156.705,13.862 156.562,13.862" id="Fill-129"></path>
                    <path d="M156.75,16.876 C155.709,16.876 154.863,16.029 154.863,14.987 C154.863,13.947 155.709,13.1 156.75,13.1 C157.794,13.1 158.639,13.947 158.639,14.987 C158.639,16.029 157.794,16.876 156.75,16.876 M156.75,13.276 C155.808,13.276 155.04,14.045 155.04,14.987 C155.04,15.931 155.808,16.7 156.75,16.7 C157.696,16.7 158.464,15.931 158.464,14.987 C158.464,14.045 157.696,13.276 156.75,13.276" id="Fill-130"></path>
                    <path d="M103.271,26.835 C102.163,26.835 100.755,26.255 100.473,26.255 C100.292,26.255 100.151,26.362 100.07,26.491 L99.729,26.491 L99.306,23.224 L99.688,23.224 C100.111,25.137 101.52,26.255 103.089,26.255 C104.438,26.255 105.866,25.416 105.866,23.718 C105.866,20.622 99.406,19.676 99.406,15.913 C99.406,14.129 100.936,12.796 102.988,12.796 C104.68,12.796 105.022,13.333 105.726,13.333 C105.887,13.333 105.968,13.29 106.088,13.118 L106.41,13.118 L106.752,15.849 L106.41,15.849 C105.847,14.301 104.559,13.311 103.17,13.311 C101.842,13.311 100.916,14.129 100.916,15.333 C100.916,18.386 107.376,19.203 107.376,23.159 C107.376,25.266 105.625,26.835 103.271,26.835" id="Fill-131"></path>
                    <path d="M114.581,26.491 L109.006,26.491 L109.006,26.083 L109.287,26.083 C110.334,26.083 110.636,25.847 110.636,24.836 L110.636,14.666 C110.636,13.871 110.395,13.527 109.691,13.527 L108.684,13.527 L108.684,13.118 C109.247,13.097 110.234,13.032 111.22,12.989 C112.206,12.946 113.172,12.925 113.716,12.925 C117.922,12.925 118.888,15.075 118.888,16.73 C118.888,19.246 116.996,20.837 114.018,20.837 C113.413,20.837 112.91,20.794 112.307,20.665 L112.307,24.427 C112.307,25.631 112.649,26.083 113.917,26.083 L114.581,26.083 L114.581,26.491 M113.695,13.333 C113.233,13.333 112.789,13.333 112.307,13.419 L112.307,20.256 C112.568,20.321 113.011,20.429 113.394,20.429 C115.587,20.429 116.996,18.837 116.996,16.666 C116.996,14.989 116.372,13.333 113.695,13.333" id="Fill-132"></path>
                    <path d="M131.529,26.491 L125.995,26.491 L125.995,26.083 L126.519,26.083 C127.666,26.083 128.088,25.954 128.088,25.351 C128.088,25.008 127.947,24.685 127.867,24.471 L126.519,20.557 L122.353,20.557 L121.185,23.932 C121.044,24.341 120.782,24.986 120.782,25.287 C120.782,25.868 121.306,26.083 122.412,26.083 L122.735,26.083 L122.735,26.491 L118.085,26.491 L118.085,26.083 C119.394,26.061 119.615,25.825 120.259,23.954 L123.922,13.268 L123.741,12.796 L125.492,12.796 L129.698,24.728 C130.101,25.868 130.524,26.083 131.529,26.083 L131.529,26.491 M124.405,14.601 L122.694,19.611 L126.176,19.611 L124.405,14.601" id="Fill-133"></path>
                    <path d="M137.426,26.491 L132.534,26.491 L132.534,26.083 C133.782,26.018 134.044,25.674 134.044,24.233 L134.044,15.075 C134.044,13.914 133.662,13.592 132.534,13.527 L132.534,13.118 L137.426,13.118 L137.426,13.527 C136.157,13.527 135.715,13.828 135.715,15.268 L135.715,24.384 C135.715,25.652 136.036,26.083 137.426,26.083 L137.426,26.491" id="Fill-134"></path>
                    <path d="M152.52,26.641 L151.996,26.641 L141.57,14.989 L141.57,24.212 C141.57,25.76 141.893,26.083 143.604,26.083 L143.604,26.491 L138.934,26.491 L138.934,26.083 L139.015,26.083 C140.262,26.083 140.665,25.631 140.665,24.642 L140.665,14.064 C140.202,13.721 139.679,13.549 138.975,13.527 L138.975,13.118 L142.134,13.118 L151.613,23.675 L151.613,15.118 C151.613,13.807 151.251,13.57 149.641,13.527 L149.641,13.118 L154.351,13.118 L154.351,13.527 C152.841,13.527 152.52,13.807 152.52,14.644 L152.52,26.641" id="Fill-135"></path>
                    <path d="M19.163,26.646 L13.637,26.646 L13.637,26.238 C14.648,26.238 15.637,25.958 15.551,24.819 L14.927,15.187 L14.884,15.187 L9.531,26.646 L9.036,26.646 L3.554,15.187 L3.511,15.187 L2.93,24.862 C2.866,25.958 3.683,26.195 4.651,26.238 L4.651,26.646 L0.178,26.646 L0.178,26.238 C1.748,26.238 1.942,25.893 2.049,23.937 L2.565,15.574 C2.651,14.155 2.608,13.768 1.275,13.683 L1.275,13.295 L4.522,13.295 L9.703,24.131 L14.863,13.295 L18.023,13.295 L18.023,13.683 C16.97,13.768 16.561,13.79 16.604,14.52 L17.292,24.26 C17.421,26.238 17.593,26.238 19.163,26.238 L19.163,26.646" id="Fill-136"></path>
                    <path d="M34.063,26.646 L28.15,26.646 L28.15,26.238 L28.709,26.238 C29.935,26.238 30.386,26.109 30.386,25.507 C30.386,25.163 30.236,24.841 30.15,24.626 L28.709,20.713 L24.259,20.713 L23.012,24.088 C22.862,24.496 22.582,25.141 22.582,25.442 C22.582,26.023 23.141,26.238 24.323,26.238 L24.667,26.238 L24.667,26.646 L19.701,26.646 L19.701,26.238 C21.098,26.217 21.335,25.98 22.023,24.109 L25.936,13.424 L25.742,12.951 L27.613,12.951 L32.106,24.884 C32.536,26.023 32.988,26.238 34.063,26.238 L34.063,26.646 M26.452,14.757 L24.624,19.766 L28.344,19.766 L26.452,14.757" id="Fill-137"></path>
                    <path d="M41.372,26.646 L34.492,26.646 L34.492,26.238 L34.858,26.238 C36.019,26.238 36.556,25.915 36.556,24.669 L36.556,15.424 C36.556,14.026 36.191,13.683 34.923,13.683 L34.492,13.683 L34.492,13.273 C35.288,13.23 36.341,13.187 37.524,13.144 C38.707,13.101 40.018,13.08 41.136,13.08 C46.812,13.08 49.327,15.961 49.327,19.509 C49.327,22.755 46.812,26.646 41.372,26.646 M40.061,13.488 C39.179,13.488 38.599,13.553 38.341,13.575 L38.341,25.056 C38.341,25.936 38.405,26.238 40.104,26.238 C42.985,26.238 44.189,25.829 45.522,24.496 C46.318,23.723 47.306,22.067 47.306,19.852 C47.306,18.262 46.855,16.499 45.587,15.23 C44.597,14.241 43.071,13.488 40.061,13.488" id="Fill-138"></path>
                    <path d="M61.991,26.646 L50.575,26.646 L50.575,26.238 L51.177,26.238 C52.897,26.238 53.198,25.765 53.198,24.474 L53.198,15.402 C53.198,14.198 52.918,13.683 51.478,13.683 L51.005,13.683 L51.005,13.273 L61.325,13.273 L61.497,16.262 L61.11,16.262 C60.83,14.434 60.293,14.048 59.519,14.048 L54.983,14.048 L54.983,19.337 L58.831,19.337 C59.605,19.337 59.97,18.971 60.078,17.724 L60.486,17.724 L60.486,21.808 L60.078,21.808 C59.906,20.282 59.497,20.11 58.616,20.11 L54.983,20.11 L54.983,24.69 C54.983,25.679 55.348,25.872 56.143,25.872 L59.454,25.872 C60.959,25.872 61.411,25.292 61.948,23.443 L62.335,23.443 L61.991,26.646" id="Fill-139"></path>
                    <path d="M58.347,37.682 C56.626,37.682 55.193,36.821 55.193,35.8 C55.193,35.145 55.847,34.573 56.544,34.573 C58.059,34.573 58.877,36.373 60.435,36.373 C61.375,36.373 62.191,35.922 62.93,35.188 C64.976,33.142 65.753,26.149 65.916,25.171 L68.006,13.312 L65.182,13.312 L65.304,12.522 C66.288,12.399 67.269,12.233 68.292,11.999 C68.906,8.628 70.135,5.091 72.428,2.789 C73.859,1.36 75.66,0.592 77.257,0.592 C78.854,0.592 80.165,1.482 80.165,2.54 C80.165,3.2 79.671,3.734 79.017,3.734 C77.666,3.734 76.559,2.046 75.372,2.046 C73.777,2.046 72.47,3.856 71.895,6.571 L70.79,11.957 L74.309,11.957 L73.898,13.312 L70.545,13.312 L68.455,25.251 C66.859,34.411 62.191,37.682 58.347,37.682" id="Fill-140"></path>
                    <path d="M76.396,27.476 C74.675,27.476 73.139,24.747 73.139,21.719 C73.139,15.806 79.514,12.165 81.714,12.165 C82.776,12.165 85.046,13.618 85.046,17.522 C85.046,24.455 78.119,27.476 76.396,27.476 M79.844,13.508 C77.533,13.508 75.481,17.923 75.481,21.573 C75.481,24.639 76.8,26.133 78.046,26.133 C80.98,26.133 82.704,21.389 82.704,18.033 C82.704,15.478 81.458,13.508 79.844,13.508" id="Fill-141"></path>
                    <path d="M89.625,27.476 L88.493,27.476 C88.091,27.476 88.055,27.256 88.128,26.926 L90.102,15.855 C90.212,15.176 90.322,14.6 89.848,14.6 C89.408,14.6 88.896,15.39 87.946,16.505 L87.545,16.065 C89.481,13.801 90.942,12.165 91.749,12.165 C92.26,12.165 92.556,12.6 92.556,13.329 C92.556,14.6 91.564,19.356 90.613,22.21 C90.508,22.508 90.526,22.77 90.623,22.77 C90.693,22.77 90.805,22.635 90.942,22.284 L92.771,17.419 C93.541,15.425 95.112,12.165 96.685,12.165 C97.271,12.165 97.598,12.637 97.598,13.293 C97.598,13.983 97.233,14.998 96.466,14.998 C96.283,14.998 95.99,14.89 95.624,14.89 C94.712,14.89 93.799,16.688 93.065,18.444 C92.296,20.344 91.198,23.307 90.942,24.258 L90.284,27.001 C90.212,27.329 89.957,27.476 89.625,27.476" id="Fill-142"></path>
                </g>
                <g id="Hotel-Awards" transform="translate(85.000000, 95.000000)" fill="#FFFFFF">
                    <polyline id="Fill-5" points="1.581 4.639 1.581 7.461 0.406 7.461 0.406 0.764 1.581 0.764 1.581 3.548 4.771 3.548 4.771 0.764 5.946 0.764 5.946 7.461 4.771 7.461 4.771 4.639 1.581 4.639"></polyline>
                    <path d="M11.243,1.73 C9.915,1.73 8.988,2.792 8.988,4.102 C8.988,5.413 9.934,6.495 11.262,6.495 C12.59,6.495 13.516,5.432 13.516,4.122 C13.516,2.811 12.571,1.73 11.243,1.73 Z M11.243,7.576 C9.189,7.576 7.756,6.016 7.756,4.122 C7.756,2.227 9.208,0.649 11.262,0.649 C13.316,0.649 14.748,2.209 14.748,4.102 C14.748,5.997 13.296,7.576 11.243,7.576 L11.243,7.576 Z" id="Fill-6"></path>
                    <polyline id="Fill-7" points="19.023 7.461 17.838 7.461 17.838 1.854 15.717 1.854 15.717 0.764 21.143 0.764 21.143 1.854 19.023 1.854 19.023 7.461"></polyline>
                    <polyline id="Fill-8" points="27.729 1.816 23.946 1.816 23.946 3.557 27.298 3.557 27.298 4.61 23.946 4.61 23.946 6.408 27.776 6.408 27.776 7.461 22.771 7.461 22.771 0.764 27.729 0.764 27.729 1.816"></polyline>
                    <polyline id="Fill-9" points="29.557 0.764 30.732 0.764 30.732 6.39 34.247 6.39 34.247 7.461 29.557 7.461 29.557 0.764"></polyline>
                    <path d="M42,2.122 L40.854,4.801 L43.155,4.801 L42,2.122 Z M45.506,7.461 L44.264,7.461 L43.585,5.844 L40.423,5.844 L39.736,7.461 L38.532,7.461 L41.474,0.716 L42.563,0.716 L45.506,7.461 L45.506,7.461 Z" id="Fill-10"></path>
                    <polyline id="Fill-11" points="50.17 0.745 51.163 0.745 52.807 5.729 54.402 0.764 55.634 0.764 53.303 7.509 52.291 7.509 50.648 2.696 49.005 7.509 47.992 7.509 45.661 0.764 46.932 0.764 48.527 5.729 50.17 0.745"></polyline>
                    <path d="M59.26,2.122 L58.114,4.801 L60.416,4.801 L59.26,2.122 Z M62.766,7.461 L61.524,7.461 L60.846,5.844 L57.684,5.844 L56.996,7.461 L55.793,7.461 L58.735,0.716 L59.823,0.716 L62.766,7.461 L62.766,7.461 Z" id="Fill-12"></path>
                    <path d="M67.184,1.835 L65.474,1.835 L65.474,4.084 L67.194,4.084 C68.034,4.084 68.569,3.643 68.569,2.955 C68.569,2.218 68.053,1.835 67.184,1.835 Z M68.588,7.461 L66.944,5.127 L65.474,5.127 L65.474,7.461 L64.299,7.461 L64.299,0.764 L67.279,0.764 C68.818,0.764 69.763,1.577 69.763,2.888 C69.763,3.998 69.104,4.667 68.167,4.926 L69.973,7.461 L68.588,7.461 L68.588,7.461 Z" id="Fill-13"></path>
                    <path d="M74.085,1.835 L72.767,1.835 L72.767,6.39 L74.085,6.39 C75.489,6.39 76.406,5.442 76.406,4.122 C76.406,2.802 75.489,1.835 74.085,1.835 Z M74.085,7.461 L71.592,7.461 L71.592,0.764 L74.085,0.764 C76.187,0.764 77.639,2.209 77.639,4.102 C77.639,5.997 76.187,7.461 74.085,7.461 L74.085,7.461 Z" id="Fill-14"></path>
                    <path d="M81.933,3.576 C83.346,3.921 84.081,4.428 84.081,5.548 C84.081,6.81 83.098,7.557 81.694,7.557 C80.671,7.557 79.706,7.202 78.904,6.485 L79.611,5.643 C80.251,6.198 80.891,6.514 81.722,6.514 C82.448,6.514 82.906,6.179 82.906,5.662 C82.906,5.175 82.639,4.916 81.398,4.629 C79.974,4.284 79.172,3.863 79.172,2.62 C79.172,1.453 80.127,0.668 81.454,0.668 C82.429,0.668 83.202,0.965 83.881,1.51 L83.25,2.399 C82.649,1.95 82.047,1.711 81.436,1.711 C80.748,1.711 80.347,2.065 80.347,2.514 C80.347,3.041 80.652,3.27 81.933,3.576" id="Fill-15"></path>
                </g>
                <g id="H" transform="translate(91.000000, 23.000000)" fill="#FFFFFF">
                    <path d="M20.127,29.633 L52.411,29.633 L52.411,15.036 C52.411,11.914 52.236,9.611 51.889,8.125 C51.54,6.64 50.896,5.413 49.956,4.442 C49.108,3.563 48.145,2.926 47.069,2.532 C45.992,2.139 44.575,1.895 42.818,1.805 L42.818,0.759 L71.873,0.759 L71.873,1.805 C70.146,1.895 68.742,2.139 67.667,2.532 C66.591,2.926 65.628,3.563 64.779,4.442 C63.84,5.413 63.195,6.647 62.847,8.148 C62.498,9.648 62.324,11.945 62.324,15.036 L62.324,48.548 C62.324,51.641 62.498,53.93 62.847,55.414 C63.195,56.9 63.84,58.142 64.779,59.143 C65.628,59.992 66.591,60.62 67.667,61.03 C68.742,61.439 70.146,61.689 71.873,61.78 L71.873,62.826 L42.818,62.826 L42.818,61.78 C44.575,61.689 45.992,61.439 47.069,61.03 C48.145,60.62 49.108,59.992 49.956,59.143 C50.896,58.173 51.54,56.945 51.889,55.46 C52.236,53.975 52.411,51.671 52.411,48.548 L52.411,31.769 L20.127,31.769 L20.127,48.548 C20.127,51.641 20.301,53.936 20.65,55.437 C20.998,56.937 21.642,58.173 22.582,59.143 C23.401,59.992 24.348,60.62 25.424,61.03 C26.5,61.439 27.917,61.689 29.676,61.78 L29.676,62.826 L0.62,62.826 L0.62,61.78 C2.378,61.689 3.795,61.439 4.871,61.03 C5.947,60.62 6.895,59.992 7.714,59.143 C8.683,58.173 9.335,56.945 9.669,55.46 C10.002,53.975 10.169,51.671 10.169,48.548 L10.169,15.036 C10.169,11.914 10.002,9.611 9.669,8.125 C9.335,6.64 8.683,5.413 7.714,4.442 C6.895,3.563 5.94,2.926 4.849,2.532 C3.758,2.139 2.348,1.895 0.62,1.805 L0.62,0.759 L29.676,0.759 L29.676,1.805 C27.948,1.895 26.546,2.139 25.47,2.532 C24.393,2.926 23.431,3.563 22.582,4.442 C21.642,5.413 20.998,6.647 20.65,8.148 C20.301,9.648 20.127,11.945 20.127,15.036 L20.127,29.633" id="Fill-119"></path>
                </g>
            </g>
        </g>
    </g>
</svg>